<svg xmlns="http://www.w3.org/2000/svg" viewBox="0 0 750 88" font-family="Inter, -apple-system, system-ui, sans-serif">
  <defs>
    <marker id="arrow" viewBox="0 0 10 7" refX="9" refY="3.5" markerWidth="7" markerHeight="5" orient="auto-start-auto">
      <path d="M 0 0 L 10 3.5 L 0 7 z" fill="#999"/>
    </marker>
  </defs>

  <!-- ScrapeAgent -->
  <rect x="16" y="20" width="120" height="44" rx="7" fill="#e8f4fd" stroke="#4a90d9" stroke-width="1.2"/>
  <text x="76" y="47" text-anchor="middle" font-size="11" font-weight="600" fill="#2c3e50">ScrapeAgent</text>

  <!-- w -> obs mark -->
  <line x1="136" y1="42" x2="168" y2="42" stroke="#888" stroke-width="1.5" marker-end="url(#arrow)"/>
  <text x="152" y="37" text-anchor="middle" font-size="7" font-weight="600" fill="#999">w</text>

  <!-- observation mark node -->
  <circle cx="184" cy="42" r="12" fill="#4a90d9" opacity="0.15" stroke="#4a90d9" stroke-width="1"/>
  <circle cx="184" cy="42" r="4" fill="#4a90d9" opacity="0.5"/>
  <text x="184" y="25" text-anchor="middle" font-size="7" fill="#4a90d9">observation</text>
  <text x="184" y="65" text-anchor="middle" font-size="7" fill="#aaa" font-style="italic">financial_data</text>

  <!-- r -> AnalystAgent -->
  <line x1="200" y1="42" x2="228" y2="42" stroke="#888" stroke-width="1.5" marker-end="url(#arrow)"/>
  <text x="214" y="37" text-anchor="middle" font-size="7" font-weight="600" fill="#999">r</text>

  <!-- AnalystAgent -->
  <rect x="232" y="20" width="120" height="44" rx="7" fill="#e8f4fd" stroke="#4a90d9" stroke-width="1.2"/>
  <text x="292" y="47" text-anchor="middle" font-size="11" font-weight="600" fill="#2c3e50">AnalystAgent</text>

  <!-- w -> intent mark -->
  <line x1="352" y1="42" x2="384" y2="42" stroke="#888" stroke-width="1.5" marker-end="url(#arrow)"/>
  <text x="368" y="37" text-anchor="middle" font-size="7" font-weight="600" fill="#999">w</text>

  <!-- intent mark node -->
  <polygon points="400,28 414,42 400,56 386,42" fill="#e67e22" opacity="0.15" stroke="#e67e22" stroke-width="1"/>
  <polygon points="400,36 406,42 400,48 394,42" fill="#e67e22" opacity="0.5"/>
  <text x="400" y="22" text-anchor="middle" font-size="7" fill="#b45f06">intent</text>
  <text x="400" y="68" text-anchor="middle" font-size="7" fill="#aaa" font-style="italic">trade</text>

  <!-- r -> ... -->
  <line x1="414" y1="42" x2="444" y2="42" stroke="#888" stroke-width="1.5" marker-end="url(#arrow)"/>
  <text x="429" y="37" text-anchor="middle" font-size="7" font-weight="600" fill="#999">r</text>
  <text x="464" y="47" text-anchor="middle" font-size="18" fill="#ccc">...</text>
</svg>
